<mxfile host="app.diagrams.net" agent="Mozilla/5.0 (Windows NT 10.0; Win64; x64) AppleWebKit/537.36 (KHTML, like Gecko) Chrome/127.0.0.0 Safari/537.36 OPR/113.0.0.0" version="24.7.17">
  <diagram name="Página-1" id="d2Pv3a15ap1ai80EHkw3">
    <mxGraphModel grid="1" page="1" gridSize="10" guides="1" tooltips="1" connect="1" arrows="1" fold="1" pageScale="1" pageWidth="827" pageHeight="1169" math="0" shadow="0">
      <root>
        <mxCell id="0" />
        <mxCell id="1" parent="0" />
        <mxCell id="iv7VjvnQs03fstjQ5iWj-10" style="edgeStyle=orthogonalEdgeStyle;rounded=0;orthogonalLoop=1;jettySize=auto;html=1;exitX=0.5;exitY=1;exitDx=0;exitDy=0;endArrow=none;endFill=0;" edge="1" parent="1" source="jG7tXpvl-X4GrDmleaPP-1" target="iv7VjvnQs03fstjQ5iWj-5">
          <mxGeometry relative="1" as="geometry" />
        </mxCell>
        <mxCell id="iv7VjvnQs03fstjQ5iWj-95" style="edgeStyle=orthogonalEdgeStyle;rounded=0;orthogonalLoop=1;jettySize=auto;html=1;exitX=1;exitY=0.5;exitDx=0;exitDy=0;entryX=0;entryY=0.5;entryDx=0;entryDy=0;endArrow=none;endFill=0;" edge="1" parent="1" source="jG7tXpvl-X4GrDmleaPP-1" target="iv7VjvnQs03fstjQ5iWj-49">
          <mxGeometry relative="1" as="geometry">
            <Array as="points">
              <mxPoint x="520" y="310" />
              <mxPoint x="700" y="310" />
              <mxPoint x="700" y="420" />
            </Array>
          </mxGeometry>
        </mxCell>
        <mxCell id="jG7tXpvl-X4GrDmleaPP-1" value="Medicamento" style="rounded=0;whiteSpace=wrap;html=1;fillColor=#e1d5e7;strokeColor=#9673a6;" vertex="1" parent="1">
          <mxGeometry x="400" y="240" width="120" height="40" as="geometry" />
        </mxCell>
        <mxCell id="jG7tXpvl-X4GrDmleaPP-9" style="edgeStyle=orthogonalEdgeStyle;rounded=0;orthogonalLoop=1;jettySize=auto;html=1;exitX=0.5;exitY=1;exitDx=0;exitDy=0;endArrow=none;endFill=0;" edge="1" parent="1" source="jG7tXpvl-X4GrDmleaPP-2" target="jG7tXpvl-X4GrDmleaPP-1">
          <mxGeometry relative="1" as="geometry" />
        </mxCell>
        <mxCell id="jG7tXpvl-X4GrDmleaPP-2" value="Código" style="ellipse;whiteSpace=wrap;html=1;aspect=fixed;fillColor=#9141ac;strokeColor=#000000;fillStyle=solid;" vertex="1" parent="1">
          <mxGeometry x="180" y="140" width="60" height="60" as="geometry" />
        </mxCell>
        <mxCell id="jG7tXpvl-X4GrDmleaPP-10" style="edgeStyle=orthogonalEdgeStyle;rounded=0;orthogonalLoop=1;jettySize=auto;html=1;exitX=0.5;exitY=1;exitDx=0;exitDy=0;entryX=0.5;entryY=0;entryDx=0;entryDy=0;endArrow=none;endFill=0;" edge="1" parent="1" source="jG7tXpvl-X4GrDmleaPP-3" target="jG7tXpvl-X4GrDmleaPP-1">
          <mxGeometry relative="1" as="geometry" />
        </mxCell>
        <mxCell id="jG7tXpvl-X4GrDmleaPP-3" value="Nombre" style="ellipse;whiteSpace=wrap;html=1;aspect=fixed;fillColor=#dc8add;strokeColor=#000000;" vertex="1" parent="1">
          <mxGeometry x="280" y="140" width="60" height="60" as="geometry" />
        </mxCell>
        <mxCell id="jG7tXpvl-X4GrDmleaPP-11" style="edgeStyle=orthogonalEdgeStyle;rounded=0;orthogonalLoop=1;jettySize=auto;html=1;exitX=0.5;exitY=1;exitDx=0;exitDy=0;endArrow=none;endFill=0;" edge="1" parent="1" source="jG7tXpvl-X4GrDmleaPP-4">
          <mxGeometry relative="1" as="geometry">
            <mxPoint x="460" y="240" as="targetPoint" />
          </mxGeometry>
        </mxCell>
        <mxCell id="jG7tXpvl-X4GrDmleaPP-4" value="Tipo" style="ellipse;whiteSpace=wrap;html=1;aspect=fixed;fillColor=#dc8add;" vertex="1" parent="1">
          <mxGeometry x="380" y="140" width="60" height="60" as="geometry" />
        </mxCell>
        <mxCell id="jG7tXpvl-X4GrDmleaPP-13" style="edgeStyle=orthogonalEdgeStyle;rounded=0;orthogonalLoop=1;jettySize=auto;html=1;exitX=0.5;exitY=1;exitDx=0;exitDy=0;endArrow=none;endFill=0;" edge="1" parent="1" source="jG7tXpvl-X4GrDmleaPP-5" target="jG7tXpvl-X4GrDmleaPP-1">
          <mxGeometry relative="1" as="geometry" />
        </mxCell>
        <mxCell id="jG7tXpvl-X4GrDmleaPP-5" value="Precio" style="ellipse;whiteSpace=wrap;html=1;aspect=fixed;fillColor=#dc8add;" vertex="1" parent="1">
          <mxGeometry x="480" y="140" width="60" height="60" as="geometry" />
        </mxCell>
        <mxCell id="jG7tXpvl-X4GrDmleaPP-16" style="edgeStyle=orthogonalEdgeStyle;rounded=0;orthogonalLoop=1;jettySize=auto;html=1;exitX=0.5;exitY=1;exitDx=0;exitDy=0;endArrow=none;endFill=0;" edge="1" parent="1" source="jG7tXpvl-X4GrDmleaPP-6">
          <mxGeometry relative="1" as="geometry">
            <mxPoint x="460" y="240" as="targetPoint" />
          </mxGeometry>
        </mxCell>
        <mxCell id="jG7tXpvl-X4GrDmleaPP-6" value="Unidades en stock" style="ellipse;whiteSpace=wrap;html=1;aspect=fixed;dashed=1;fillColor=#dc8add;" vertex="1" parent="1">
          <mxGeometry x="580" y="140" width="60" height="60" as="geometry" />
        </mxCell>
        <mxCell id="jG7tXpvl-X4GrDmleaPP-17" style="edgeStyle=orthogonalEdgeStyle;rounded=0;orthogonalLoop=1;jettySize=auto;html=1;exitX=0.5;exitY=1;exitDx=0;exitDy=0;endArrow=none;endFill=0;" edge="1" parent="1" source="jG7tXpvl-X4GrDmleaPP-8" target="jG7tXpvl-X4GrDmleaPP-1">
          <mxGeometry relative="1" as="geometry" />
        </mxCell>
        <mxCell id="jG7tXpvl-X4GrDmleaPP-8" value="Unidades vendidas" style="ellipse;whiteSpace=wrap;html=1;aspect=fixed;dashed=1;fillColor=#dc8add;" vertex="1" parent="1">
          <mxGeometry x="680" y="140" width="60" height="60" as="geometry" />
        </mxCell>
        <mxCell id="jG7tXpvl-X4GrDmleaPP-12" style="edgeStyle=orthogonalEdgeStyle;rounded=0;orthogonalLoop=1;jettySize=auto;html=1;exitX=0.5;exitY=1;exitDx=0;exitDy=0;" edge="1" parent="1" source="jG7tXpvl-X4GrDmleaPP-5" target="jG7tXpvl-X4GrDmleaPP-5">
          <mxGeometry relative="1" as="geometry" />
        </mxCell>
        <mxCell id="jG7tXpvl-X4GrDmleaPP-18" value="Laboratorio" style="rounded=0;whiteSpace=wrap;html=1;fillColor=#e1d5e7;strokeColor=#9673a6;" vertex="1" parent="1">
          <mxGeometry x="1040" y="240" width="120" height="40" as="geometry" />
        </mxCell>
        <mxCell id="jG7tXpvl-X4GrDmleaPP-30" style="edgeStyle=orthogonalEdgeStyle;rounded=0;orthogonalLoop=1;jettySize=auto;html=1;exitX=0.5;exitY=1;exitDx=0;exitDy=0;endArrow=none;endFill=0;" edge="1" parent="1" source="jG7tXpvl-X4GrDmleaPP-19" target="jG7tXpvl-X4GrDmleaPP-18">
          <mxGeometry relative="1" as="geometry" />
        </mxCell>
        <mxCell id="jG7tXpvl-X4GrDmleaPP-19" value="Persona de contacto" style="ellipse;whiteSpace=wrap;html=1;aspect=fixed;fillColor=#dc8add;" vertex="1" parent="1">
          <mxGeometry x="1320" y="140" width="60" height="60" as="geometry" />
        </mxCell>
        <mxCell id="jG7tXpvl-X4GrDmleaPP-29" style="edgeStyle=orthogonalEdgeStyle;rounded=0;orthogonalLoop=1;jettySize=auto;html=1;exitX=0.5;exitY=1;exitDx=0;exitDy=0;endArrow=none;endFill=0;" edge="1" parent="1" source="jG7tXpvl-X4GrDmleaPP-20" target="jG7tXpvl-X4GrDmleaPP-18">
          <mxGeometry relative="1" as="geometry" />
        </mxCell>
        <mxCell id="jG7tXpvl-X4GrDmleaPP-20" value="Fax" style="ellipse;whiteSpace=wrap;html=1;aspect=fixed;fillColor=#dc8add;" vertex="1" parent="1">
          <mxGeometry x="1220" y="140" width="60" height="60" as="geometry" />
        </mxCell>
        <mxCell id="jG7tXpvl-X4GrDmleaPP-28" style="edgeStyle=orthogonalEdgeStyle;rounded=0;orthogonalLoop=1;jettySize=auto;html=1;exitX=0.5;exitY=1;exitDx=0;exitDy=0;endArrow=none;endFill=0;" edge="1" parent="1" source="jG7tXpvl-X4GrDmleaPP-21" target="jG7tXpvl-X4GrDmleaPP-18">
          <mxGeometry relative="1" as="geometry" />
        </mxCell>
        <mxCell id="jG7tXpvl-X4GrDmleaPP-21" value="Dirección" style="ellipse;whiteSpace=wrap;html=1;aspect=fixed;fillColor=#dc8add;" vertex="1" parent="1">
          <mxGeometry x="1120" y="140" width="60" height="60" as="geometry" />
        </mxCell>
        <mxCell id="jG7tXpvl-X4GrDmleaPP-27" style="edgeStyle=orthogonalEdgeStyle;rounded=0;orthogonalLoop=1;jettySize=auto;html=1;exitX=0.5;exitY=1;exitDx=0;exitDy=0;endArrow=none;endFill=0;" edge="1" parent="1" source="jG7tXpvl-X4GrDmleaPP-22" target="jG7tXpvl-X4GrDmleaPP-18">
          <mxGeometry relative="1" as="geometry" />
        </mxCell>
        <mxCell id="jG7tXpvl-X4GrDmleaPP-22" value="Teléfono" style="ellipse;whiteSpace=wrap;html=1;aspect=fixed;fillColor=#dc8add;" vertex="1" parent="1">
          <mxGeometry x="1020" y="140" width="60" height="60" as="geometry" />
        </mxCell>
        <mxCell id="jG7tXpvl-X4GrDmleaPP-26" style="edgeStyle=orthogonalEdgeStyle;rounded=0;orthogonalLoop=1;jettySize=auto;html=1;exitX=0.5;exitY=1;exitDx=0;exitDy=0;entryX=0.5;entryY=0;entryDx=0;entryDy=0;endArrow=none;endFill=0;" edge="1" parent="1" source="jG7tXpvl-X4GrDmleaPP-23" target="jG7tXpvl-X4GrDmleaPP-18">
          <mxGeometry relative="1" as="geometry" />
        </mxCell>
        <mxCell id="jG7tXpvl-X4GrDmleaPP-23" value="Nombre" style="ellipse;whiteSpace=wrap;html=1;aspect=fixed;fillColor=#dc8add;" vertex="1" parent="1">
          <mxGeometry x="920" y="140" width="60" height="60" as="geometry" />
        </mxCell>
        <mxCell id="jG7tXpvl-X4GrDmleaPP-25" style="edgeStyle=orthogonalEdgeStyle;rounded=0;orthogonalLoop=1;jettySize=auto;html=1;exitX=0.5;exitY=1;exitDx=0;exitDy=0;endArrow=none;endFill=0;" edge="1" parent="1" source="jG7tXpvl-X4GrDmleaPP-24" target="jG7tXpvl-X4GrDmleaPP-18">
          <mxGeometry relative="1" as="geometry" />
        </mxCell>
        <mxCell id="jG7tXpvl-X4GrDmleaPP-24" value="Código" style="ellipse;whiteSpace=wrap;html=1;aspect=fixed;fillStyle=solid;fillColor=#813d9c;" vertex="1" parent="1">
          <mxGeometry x="820" y="140" width="60" height="60" as="geometry" />
        </mxCell>
        <mxCell id="jG7tXpvl-X4GrDmleaPP-34" style="edgeStyle=orthogonalEdgeStyle;rounded=0;orthogonalLoop=1;jettySize=auto;html=1;exitX=0.5;exitY=1;exitDx=0;exitDy=0;endArrow=none;endFill=0;" edge="1" parent="1" source="jG7tXpvl-X4GrDmleaPP-31" target="jG7tXpvl-X4GrDmleaPP-21">
          <mxGeometry relative="1" as="geometry" />
        </mxCell>
        <mxCell id="jG7tXpvl-X4GrDmleaPP-31" value="Calle" style="ellipse;whiteSpace=wrap;html=1;aspect=fixed;fillColor=#dc8add;" vertex="1" parent="1">
          <mxGeometry x="1040" y="40" width="60" height="60" as="geometry" />
        </mxCell>
        <mxCell id="jG7tXpvl-X4GrDmleaPP-36" style="edgeStyle=orthogonalEdgeStyle;rounded=0;orthogonalLoop=1;jettySize=auto;html=1;exitX=0.5;exitY=1;exitDx=0;exitDy=0;endArrow=none;endFill=0;" edge="1" parent="1" source="jG7tXpvl-X4GrDmleaPP-32" target="jG7tXpvl-X4GrDmleaPP-21">
          <mxGeometry relative="1" as="geometry" />
        </mxCell>
        <mxCell id="jG7tXpvl-X4GrDmleaPP-32" value="Número" style="ellipse;whiteSpace=wrap;html=1;aspect=fixed;fillColor=#dc8add;" vertex="1" parent="1">
          <mxGeometry x="1200" y="40" width="60" height="60" as="geometry" />
        </mxCell>
        <mxCell id="jG7tXpvl-X4GrDmleaPP-35" style="edgeStyle=orthogonalEdgeStyle;rounded=0;orthogonalLoop=1;jettySize=auto;html=1;exitX=0.5;exitY=1;exitDx=0;exitDy=0;endArrow=none;endFill=0;" edge="1" parent="1" source="jG7tXpvl-X4GrDmleaPP-33" target="jG7tXpvl-X4GrDmleaPP-21">
          <mxGeometry relative="1" as="geometry" />
        </mxCell>
        <mxCell id="jG7tXpvl-X4GrDmleaPP-33" value="Nombre" style="ellipse;whiteSpace=wrap;html=1;aspect=fixed;fillColor=#dc8add;" vertex="1" parent="1">
          <mxGeometry x="1120" y="40" width="60" height="60" as="geometry" />
        </mxCell>
        <mxCell id="jG7tXpvl-X4GrDmleaPP-38" style="edgeStyle=orthogonalEdgeStyle;rounded=0;orthogonalLoop=1;jettySize=auto;html=1;exitX=0;exitY=0.5;exitDx=0;exitDy=0;endArrow=none;endFill=0;" edge="1" parent="1" source="jG7tXpvl-X4GrDmleaPP-37" target="jG7tXpvl-X4GrDmleaPP-1">
          <mxGeometry relative="1" as="geometry" />
        </mxCell>
        <mxCell id="jG7tXpvl-X4GrDmleaPP-39" style="edgeStyle=orthogonalEdgeStyle;rounded=0;orthogonalLoop=1;jettySize=auto;html=1;exitX=1;exitY=0.5;exitDx=0;exitDy=0;endArrow=none;endFill=0;" edge="1" parent="1" source="jG7tXpvl-X4GrDmleaPP-37" target="jG7tXpvl-X4GrDmleaPP-18">
          <mxGeometry relative="1" as="geometry" />
        </mxCell>
        <mxCell id="jG7tXpvl-X4GrDmleaPP-37" value="Produce" style="rhombus;whiteSpace=wrap;html=1;fillColor=#ffe6cc;strokeColor=#d79b00;" vertex="1" parent="1">
          <mxGeometry x="750" y="230" width="60" height="60" as="geometry" />
        </mxCell>
        <mxCell id="iv7VjvnQs03fstjQ5iWj-1" value="" style="ellipse;whiteSpace=wrap;html=1;aspect=fixed;perimeterSpacing=0;fillColor=none;" vertex="1" parent="1">
          <mxGeometry x="1025" y="145" width="50" height="50" as="geometry" />
        </mxCell>
        <mxCell id="iv7VjvnQs03fstjQ5iWj-4" value="Familia" style="rounded=0;whiteSpace=wrap;html=1;fillColor=#e1d5e7;strokeColor=#9673a6;" vertex="1" parent="1">
          <mxGeometry x="400" y="440" width="120" height="40" as="geometry" />
        </mxCell>
        <mxCell id="iv7VjvnQs03fstjQ5iWj-11" style="edgeStyle=orthogonalEdgeStyle;rounded=0;orthogonalLoop=1;jettySize=auto;html=1;exitX=0.5;exitY=1;exitDx=0;exitDy=0;entryX=0.5;entryY=0;entryDx=0;entryDy=0;endArrow=none;endFill=0;" edge="1" parent="1" source="iv7VjvnQs03fstjQ5iWj-5" target="iv7VjvnQs03fstjQ5iWj-4">
          <mxGeometry relative="1" as="geometry" />
        </mxCell>
        <mxCell id="iv7VjvnQs03fstjQ5iWj-5" value="Pertenece" style="rhombus;whiteSpace=wrap;html=1;fillColor=#ffe6cc;strokeColor=#d79b00;" vertex="1" parent="1">
          <mxGeometry x="430" y="330" width="60" height="60" as="geometry" />
        </mxCell>
        <mxCell id="iv7VjvnQs03fstjQ5iWj-6" value="&lt;div&gt;(1:N)&lt;/div&gt;" style="text;html=1;align=center;verticalAlign=middle;resizable=0;points=[];autosize=1;strokeColor=none;fillColor=none;" vertex="1" parent="1">
          <mxGeometry x="510" y="230" width="50" height="30" as="geometry" />
        </mxCell>
        <mxCell id="iv7VjvnQs03fstjQ5iWj-8" value="(1:N)" style="text;html=1;align=center;verticalAlign=middle;resizable=0;points=[];autosize=1;strokeColor=none;fillColor=none;" vertex="1" parent="1">
          <mxGeometry x="995" y="230" width="50" height="30" as="geometry" />
        </mxCell>
        <mxCell id="iv7VjvnQs03fstjQ5iWj-9" value="1:N" style="text;html=1;align=center;verticalAlign=middle;resizable=0;points=[];autosize=1;strokeColor=none;fillColor=none;" vertex="1" parent="1">
          <mxGeometry x="760" y="200" width="40" height="30" as="geometry" />
        </mxCell>
        <mxCell id="iv7VjvnQs03fstjQ5iWj-12" value="(1:1)" style="text;html=1;align=center;verticalAlign=middle;resizable=0;points=[];autosize=1;strokeColor=none;fillColor=none;" vertex="1" parent="1">
          <mxGeometry x="450" y="410" width="50" height="30" as="geometry" />
        </mxCell>
        <mxCell id="iv7VjvnQs03fstjQ5iWj-13" value="&lt;div&gt;(1:N)&lt;/div&gt;" style="text;html=1;align=center;verticalAlign=middle;resizable=0;points=[];autosize=1;strokeColor=none;fillColor=none;" vertex="1" parent="1">
          <mxGeometry x="450" y="280" width="50" height="30" as="geometry" />
        </mxCell>
        <mxCell id="iv7VjvnQs03fstjQ5iWj-14" value="&lt;div&gt;1:N&lt;/div&gt;" style="text;html=1;align=center;verticalAlign=middle;resizable=0;points=[];autosize=1;strokeColor=none;fillColor=none;" vertex="1" parent="1">
          <mxGeometry x="490" y="345" width="40" height="30" as="geometry" />
        </mxCell>
        <mxCell id="iv7VjvnQs03fstjQ5iWj-20" style="edgeStyle=orthogonalEdgeStyle;rounded=0;orthogonalLoop=1;jettySize=auto;html=1;exitX=0.5;exitY=0;exitDx=0;exitDy=0;entryX=0.5;entryY=1;entryDx=0;entryDy=0;endArrow=none;endFill=0;" edge="1" parent="1" source="iv7VjvnQs03fstjQ5iWj-16" target="iv7VjvnQs03fstjQ5iWj-4">
          <mxGeometry relative="1" as="geometry" />
        </mxCell>
        <mxCell id="iv7VjvnQs03fstjQ5iWj-16" value="Nombre" style="ellipse;whiteSpace=wrap;html=1;aspect=fixed;fillColor=#dc8add;strokeColor=#000000;" vertex="1" parent="1">
          <mxGeometry x="490" y="520" width="60" height="60" as="geometry" />
        </mxCell>
        <mxCell id="iv7VjvnQs03fstjQ5iWj-18" style="edgeStyle=orthogonalEdgeStyle;rounded=0;orthogonalLoop=1;jettySize=auto;html=1;exitX=0.5;exitY=0;exitDx=0;exitDy=0;entryX=0.5;entryY=1;entryDx=0;entryDy=0;endArrow=none;endFill=0;" edge="1" parent="1" source="iv7VjvnQs03fstjQ5iWj-17" target="iv7VjvnQs03fstjQ5iWj-4">
          <mxGeometry relative="1" as="geometry" />
        </mxCell>
        <mxCell id="iv7VjvnQs03fstjQ5iWj-17" value="Tipo" style="ellipse;whiteSpace=wrap;html=1;aspect=fixed;fillColor=#813d9c;strokeColor=#000000;" vertex="1" parent="1">
          <mxGeometry x="370" y="520" width="60" height="60" as="geometry" />
        </mxCell>
        <mxCell id="iv7VjvnQs03fstjQ5iWj-50" style="edgeStyle=orthogonalEdgeStyle;rounded=0;orthogonalLoop=1;jettySize=auto;html=1;exitX=0;exitY=0.5;exitDx=0;exitDy=0;entryX=1;entryY=0.5;entryDx=0;entryDy=0;endArrow=none;endFill=0;" edge="1" parent="1" source="iv7VjvnQs03fstjQ5iWj-22" target="iv7VjvnQs03fstjQ5iWj-49">
          <mxGeometry relative="1" as="geometry" />
        </mxCell>
        <mxCell id="iv7VjvnQs03fstjQ5iWj-22" value="&lt;div&gt;Farmacia&lt;/div&gt;" style="rounded=0;whiteSpace=wrap;html=1;fillColor=#e1d5e7;strokeColor=#9673a6;" vertex="1" parent="1">
          <mxGeometry x="1040" y="400" width="120" height="40" as="geometry" />
        </mxCell>
        <mxCell id="iv7VjvnQs03fstjQ5iWj-42" style="edgeStyle=orthogonalEdgeStyle;rounded=0;orthogonalLoop=1;jettySize=auto;html=1;exitX=0.5;exitY=0;exitDx=0;exitDy=0;entryX=0.5;entryY=1;entryDx=0;entryDy=0;endArrow=none;endFill=0;" edge="1" parent="1" source="iv7VjvnQs03fstjQ5iWj-24" target="iv7VjvnQs03fstjQ5iWj-22">
          <mxGeometry relative="1" as="geometry" />
        </mxCell>
        <mxCell id="iv7VjvnQs03fstjQ5iWj-24" value="Código" style="ellipse;whiteSpace=wrap;html=1;aspect=fixed;fillColor=#813d9c;" vertex="1" parent="1">
          <mxGeometry x="920" y="490" width="60" height="60" as="geometry" />
        </mxCell>
        <mxCell id="iv7VjvnQs03fstjQ5iWj-43" style="edgeStyle=orthogonalEdgeStyle;rounded=0;orthogonalLoop=1;jettySize=auto;html=1;exitX=0.5;exitY=0;exitDx=0;exitDy=0;endArrow=none;endFill=0;" edge="1" parent="1" source="iv7VjvnQs03fstjQ5iWj-25">
          <mxGeometry relative="1" as="geometry">
            <mxPoint x="1100" y="440" as="targetPoint" />
          </mxGeometry>
        </mxCell>
        <mxCell id="iv7VjvnQs03fstjQ5iWj-25" value="Nombre" style="ellipse;whiteSpace=wrap;html=1;aspect=fixed;fillColor=#dc8add;" vertex="1" parent="1">
          <mxGeometry x="1020" y="490" width="60" height="60" as="geometry" />
        </mxCell>
        <mxCell id="iv7VjvnQs03fstjQ5iWj-44" style="edgeStyle=orthogonalEdgeStyle;rounded=0;orthogonalLoop=1;jettySize=auto;html=1;exitX=0.5;exitY=0;exitDx=0;exitDy=0;entryX=0.5;entryY=1;entryDx=0;entryDy=0;endArrow=none;endFill=0;" edge="1" parent="1" source="iv7VjvnQs03fstjQ5iWj-26" target="iv7VjvnQs03fstjQ5iWj-22">
          <mxGeometry relative="1" as="geometry" />
        </mxCell>
        <mxCell id="iv7VjvnQs03fstjQ5iWj-26" value="Teléfono" style="ellipse;whiteSpace=wrap;html=1;aspect=fixed;fillColor=#dc8add;" vertex="1" parent="1">
          <mxGeometry x="1120" y="490" width="60" height="60" as="geometry" />
        </mxCell>
        <mxCell id="iv7VjvnQs03fstjQ5iWj-27" value="" style="ellipse;whiteSpace=wrap;html=1;aspect=fixed;perimeterSpacing=0;fillColor=none;" vertex="1" parent="1">
          <mxGeometry x="1125" y="495" width="50" height="50" as="geometry" />
        </mxCell>
        <mxCell id="iv7VjvnQs03fstjQ5iWj-39" style="edgeStyle=orthogonalEdgeStyle;rounded=0;orthogonalLoop=1;jettySize=auto;html=1;exitX=0.5;exitY=1;exitDx=0;exitDy=0;endArrow=none;endFill=0;" edge="1" parent="1" source="iv7VjvnQs03fstjQ5iWj-29" target="iv7VjvnQs03fstjQ5iWj-38">
          <mxGeometry relative="1" as="geometry" />
        </mxCell>
        <mxCell id="iv7VjvnQs03fstjQ5iWj-45" style="edgeStyle=orthogonalEdgeStyle;rounded=0;orthogonalLoop=1;jettySize=auto;html=1;exitX=0.5;exitY=0;exitDx=0;exitDy=0;endArrow=none;endFill=0;" edge="1" parent="1" source="iv7VjvnQs03fstjQ5iWj-29">
          <mxGeometry relative="1" as="geometry">
            <mxPoint x="1100" y="440" as="targetPoint" />
          </mxGeometry>
        </mxCell>
        <mxCell id="iv7VjvnQs03fstjQ5iWj-29" value="Dirección" style="ellipse;whiteSpace=wrap;html=1;aspect=fixed;fillColor=#dc8add;" vertex="1" parent="1">
          <mxGeometry x="1220" y="490" width="60" height="60" as="geometry" />
        </mxCell>
        <mxCell id="iv7VjvnQs03fstjQ5iWj-41" style="edgeStyle=orthogonalEdgeStyle;rounded=0;orthogonalLoop=1;jettySize=auto;html=1;exitX=0.5;exitY=0;exitDx=0;exitDy=0;endArrow=none;endFill=0;" edge="1" parent="1" source="iv7VjvnQs03fstjQ5iWj-32">
          <mxGeometry relative="1" as="geometry">
            <mxPoint x="1250" y="550" as="targetPoint" />
          </mxGeometry>
        </mxCell>
        <mxCell id="iv7VjvnQs03fstjQ5iWj-32" value="Calle" style="ellipse;whiteSpace=wrap;html=1;aspect=fixed;fillColor=#dc8add;" vertex="1" parent="1">
          <mxGeometry x="1140" y="590" width="60" height="60" as="geometry" />
        </mxCell>
        <mxCell id="iv7VjvnQs03fstjQ5iWj-40" style="edgeStyle=orthogonalEdgeStyle;rounded=0;orthogonalLoop=1;jettySize=auto;html=1;exitX=0.5;exitY=0;exitDx=0;exitDy=0;entryX=0.5;entryY=1;entryDx=0;entryDy=0;endArrow=none;endFill=0;" edge="1" parent="1" source="iv7VjvnQs03fstjQ5iWj-34" target="iv7VjvnQs03fstjQ5iWj-29">
          <mxGeometry relative="1" as="geometry" />
        </mxCell>
        <mxCell id="iv7VjvnQs03fstjQ5iWj-34" value="Número" style="ellipse;whiteSpace=wrap;html=1;aspect=fixed;fillColor=#dc8add;" vertex="1" parent="1">
          <mxGeometry x="1300" y="590" width="60" height="60" as="geometry" />
        </mxCell>
        <mxCell id="iv7VjvnQs03fstjQ5iWj-38" value="Nombre" style="ellipse;whiteSpace=wrap;html=1;aspect=fixed;fillColor=#dc8add;" vertex="1" parent="1">
          <mxGeometry x="1220" y="590" width="60" height="60" as="geometry" />
        </mxCell>
        <mxCell id="iv7VjvnQs03fstjQ5iWj-46" value="(1:N)" style="text;html=1;align=center;verticalAlign=middle;resizable=0;points=[];autosize=1;strokeColor=none;fillColor=none;" vertex="1" parent="1">
          <mxGeometry x="995" y="390" width="50" height="30" as="geometry" />
        </mxCell>
        <mxCell id="iv7VjvnQs03fstjQ5iWj-49" value="Produce" style="rhombus;whiteSpace=wrap;html=1;fillColor=#ffe6cc;strokeColor=#d79b00;" vertex="1" parent="1">
          <mxGeometry x="750" y="390" width="60" height="60" as="geometry" />
        </mxCell>
        <mxCell id="iv7VjvnQs03fstjQ5iWj-101" style="edgeStyle=orthogonalEdgeStyle;rounded=0;orthogonalLoop=1;jettySize=auto;html=1;exitX=1;exitY=0.5;exitDx=0;exitDy=0;endArrow=none;endFill=0;" edge="1" parent="1" source="iv7VjvnQs03fstjQ5iWj-90" target="jG7tXpvl-X4GrDmleaPP-1">
          <mxGeometry relative="1" as="geometry" />
        </mxCell>
        <mxCell id="iv7VjvnQs03fstjQ5iWj-90" value="Compra" style="rounded=0;whiteSpace=wrap;html=1;fillColor=#e1d5e7;strokeColor=#9673a6;" vertex="1" parent="1">
          <mxGeometry x="-40" y="240" width="120" height="40" as="geometry" />
        </mxCell>
        <mxCell id="iv7VjvnQs03fstjQ5iWj-97" value="" style="endArrow=none;html=1;rounded=0;curved=1;" edge="1" parent="1">
          <mxGeometry width="50" height="50" relative="1" as="geometry">
            <mxPoint x="600" y="340" as="sourcePoint" />
            <mxPoint x="600" y="230" as="targetPoint" />
            <Array as="points">
              <mxPoint x="620" y="280" />
            </Array>
          </mxGeometry>
        </mxCell>
        <mxCell id="iv7VjvnQs03fstjQ5iWj-98" value="&lt;div&gt;(1:N)&lt;/div&gt;" style="text;html=1;align=center;verticalAlign=middle;resizable=0;points=[];autosize=1;strokeColor=none;fillColor=none;" vertex="1" parent="1">
          <mxGeometry x="510" y="280" width="50" height="30" as="geometry" />
        </mxCell>
        <mxCell id="iv7VjvnQs03fstjQ5iWj-99" value="1:N" style="text;html=1;align=center;verticalAlign=middle;resizable=0;points=[];autosize=1;strokeColor=none;fillColor=none;" vertex="1" parent="1">
          <mxGeometry x="760" y="360" width="40" height="30" as="geometry" />
        </mxCell>
        <mxCell id="iv7VjvnQs03fstjQ5iWj-104" style="edgeStyle=orthogonalEdgeStyle;rounded=0;orthogonalLoop=1;jettySize=auto;html=1;exitX=1;exitY=0.5;exitDx=0;exitDy=0;entryX=0;entryY=0.5;entryDx=0;entryDy=0;endArrow=none;endFill=0;" edge="1" parent="1" source="iv7VjvnQs03fstjQ5iWj-102" target="iv7VjvnQs03fstjQ5iWj-103">
          <mxGeometry relative="1" as="geometry" />
        </mxCell>
        <mxCell id="iv7VjvnQs03fstjQ5iWj-102" value="Cliente con crédito" style="rounded=0;whiteSpace=wrap;html=1;fillColor=#e1d5e7;strokeColor=#9673a6;" vertex="1" parent="1">
          <mxGeometry x="-460" y="240" width="120" height="40" as="geometry" />
        </mxCell>
        <mxCell id="iv7VjvnQs03fstjQ5iWj-105" style="edgeStyle=orthogonalEdgeStyle;rounded=0;orthogonalLoop=1;jettySize=auto;html=1;exitX=1;exitY=0.5;exitDx=0;exitDy=0;entryX=0;entryY=0.5;entryDx=0;entryDy=0;endArrow=none;endFill=0;" edge="1" parent="1" source="iv7VjvnQs03fstjQ5iWj-103" target="iv7VjvnQs03fstjQ5iWj-90">
          <mxGeometry relative="1" as="geometry" />
        </mxCell>
        <mxCell id="iv7VjvnQs03fstjQ5iWj-103" value="Realizada" style="rhombus;whiteSpace=wrap;html=1;fillColor=#ffe6cc;strokeColor=#d79b00;" vertex="1" parent="1">
          <mxGeometry x="-230" y="230" width="60" height="60" as="geometry" />
        </mxCell>
        <mxCell id="iv7VjvnQs03fstjQ5iWj-106" value="(1:N)" style="text;html=1;align=center;verticalAlign=middle;resizable=0;points=[];autosize=1;strokeColor=none;fillColor=none;" vertex="1" parent="1">
          <mxGeometry x="-80" y="230" width="50" height="30" as="geometry" />
        </mxCell>
        <mxCell id="iv7VjvnQs03fstjQ5iWj-107" value="(0:1)" style="text;html=1;align=center;verticalAlign=middle;resizable=0;points=[];autosize=1;strokeColor=none;fillColor=none;" vertex="1" parent="1">
          <mxGeometry x="-350" y="230" width="50" height="30" as="geometry" />
        </mxCell>
        <mxCell id="iv7VjvnQs03fstjQ5iWj-108" value="1:N" style="text;html=1;align=center;verticalAlign=middle;resizable=0;points=[];autosize=1;strokeColor=none;fillColor=none;" vertex="1" parent="1">
          <mxGeometry x="-220" y="200" width="40" height="30" as="geometry" />
        </mxCell>
        <mxCell id="OIw18MZTxrhBpuSaDeca-3" style="edgeStyle=orthogonalEdgeStyle;rounded=0;orthogonalLoop=1;jettySize=auto;html=1;exitX=0.5;exitY=1;exitDx=0;exitDy=0;entryX=0.5;entryY=0;entryDx=0;entryDy=0;" edge="1" parent="1" source="OIw18MZTxrhBpuSaDeca-1" target="iv7VjvnQs03fstjQ5iWj-102">
          <mxGeometry relative="1" as="geometry" />
        </mxCell>
        <mxCell id="OIw18MZTxrhBpuSaDeca-1" value="Datos bancarios" style="ellipse;whiteSpace=wrap;html=1;aspect=fixed;fillColor=#dc8add;strokeColor=#000000;" vertex="1" parent="1">
          <mxGeometry x="-490" y="140" width="60" height="60" as="geometry" />
        </mxCell>
        <mxCell id="OIw18MZTxrhBpuSaDeca-4" style="edgeStyle=orthogonalEdgeStyle;rounded=0;orthogonalLoop=1;jettySize=auto;html=1;exitX=0.5;exitY=1;exitDx=0;exitDy=0;" edge="1" parent="1" source="OIw18MZTxrhBpuSaDeca-2">
          <mxGeometry relative="1" as="geometry">
            <mxPoint x="-400" y="240" as="targetPoint" />
          </mxGeometry>
        </mxCell>
        <mxCell id="OIw18MZTxrhBpuSaDeca-2" value="Fecha de pago" style="ellipse;whiteSpace=wrap;html=1;aspect=fixed;fillColor=#dc8add;strokeColor=#000000;" vertex="1" parent="1">
          <mxGeometry x="-370" y="140" width="60" height="60" as="geometry" />
        </mxCell>
        <mxCell id="Ee1UYcfH1mXA81QMyIT2-2" style="edgeStyle=orthogonalEdgeStyle;rounded=0;orthogonalLoop=1;jettySize=auto;html=1;exitX=0.5;exitY=1;exitDx=0;exitDy=0;entryX=0.5;entryY=0;entryDx=0;entryDy=0;" edge="1" parent="1" source="Ee1UYcfH1mXA81QMyIT2-1" target="iv7VjvnQs03fstjQ5iWj-90">
          <mxGeometry relative="1" as="geometry" />
        </mxCell>
        <mxCell id="Ee1UYcfH1mXA81QMyIT2-1" value="Unidades compradas" style="ellipse;whiteSpace=wrap;html=1;aspect=fixed;fillColor=#dc8add;strokeColor=#000000;" vertex="1" parent="1">
          <mxGeometry x="-70" y="140" width="60" height="60" as="geometry" />
        </mxCell>
        <mxCell id="Ee1UYcfH1mXA81QMyIT2-4" style="edgeStyle=orthogonalEdgeStyle;rounded=0;orthogonalLoop=1;jettySize=auto;html=1;exitX=0.5;exitY=1;exitDx=0;exitDy=0;entryX=0.5;entryY=0;entryDx=0;entryDy=0;" edge="1" parent="1" source="Ee1UYcfH1mXA81QMyIT2-3" target="iv7VjvnQs03fstjQ5iWj-90">
          <mxGeometry relative="1" as="geometry" />
        </mxCell>
        <mxCell id="Ee1UYcfH1mXA81QMyIT2-3" value="Fecha de compra" style="ellipse;whiteSpace=wrap;html=1;aspect=fixed;fillColor=#dc8add;strokeColor=#000000;" vertex="1" parent="1">
          <mxGeometry x="50" y="140" width="60" height="60" as="geometry" />
        </mxCell>
        <mxCell id="vCeliS4FYxE5SNVGo9vh-2" style="edgeStyle=orthogonalEdgeStyle;rounded=0;orthogonalLoop=1;jettySize=auto;html=1;exitX=0.5;exitY=1;exitDx=0;exitDy=0;entryX=0.5;entryY=0;entryDx=0;entryDy=0;" edge="1" parent="1" source="vCeliS4FYxE5SNVGo9vh-1" target="jG7tXpvl-X4GrDmleaPP-1">
          <mxGeometry relative="1" as="geometry" />
        </mxCell>
        <mxCell id="vCeliS4FYxE5SNVGo9vh-1" value="Tipo de venta" style="ellipse;whiteSpace=wrap;html=1;aspect=fixed;fillColor=#dc8add;" vertex="1" parent="1">
          <mxGeometry x="430" y="60" width="60" height="60" as="geometry" />
        </mxCell>
      </root>
    </mxGraphModel>
  </diagram>
</mxfile>
